<svg width="65" height="65" viewBox="0 0 65 65" fill="none" xmlns="http://www.w3.org/2000/svg">
<path d="M50.8896 15.3562C50.889 14.4392 50.5783 13.5495 50.0079 12.8316C49.4375 12.1137 48.641 11.6098 47.7479 11.402L46.7188 7.66449C46.5309 7.06013 46.1523 6.53291 45.6396 6.16183C45.1269 5.79075 44.5078 5.59579 43.875 5.60616H21.0979C20.4676 5.59232 19.8502 5.7864 19.3411 6.15842C18.832 6.53044 18.4596 7.05971 18.2813 7.66449L17.2521 11.402C16.3265 11.6354 15.5092 12.1799 14.9373 12.9441C14.3653 13.7084 14.0734 14.646 14.1104 15.5999C14.1082 16.4653 14.3868 17.3081 14.9045 18.0016C15.4222 18.6951 16.1509 19.2018 16.9813 19.4457L17.2521 26.9478C16.8185 27.0182 16.4194 27.2273 16.1146 27.5437C15.9232 27.7456 15.7742 27.9838 15.6765 28.2444C15.5788 28.5049 15.5344 28.7823 15.5459 29.0603L16.1959 44.6603C16.2156 45.1397 16.4024 45.5971 16.7239 45.9532C17.0454 46.3094 17.4814 46.5418 17.9563 46.6103L18.1729 52.6228C18.2287 54.4431 18.9932 56.1697 20.3035 57.4345C21.6139 58.6993 23.3664 59.4023 25.1875 59.3937H39.7854C41.6108 59.408 43.3694 58.7077 44.6853 57.4424C46.0012 56.1772 46.7699 54.4474 46.8271 52.6228L47.0438 46.6103C47.5135 46.5356 47.9429 46.3005 48.2589 45.945C48.5748 45.5895 48.758 45.1356 48.7771 44.6603L49.4271 29.0603C49.4386 28.7823 49.3941 28.5049 49.2964 28.2444C49.1987 27.9838 49.0498 27.7456 48.8584 27.5437C48.5644 27.2276 48.1738 27.0181 47.7479 26.9478L48.0188 19.4457C48.8761 19.1677 49.6198 18.6185 50.1377 17.8808C50.6555 17.1431 50.9195 16.257 50.8896 15.3562ZM21.0979 8.31449L44.0917 8.39574L44.9042 11.2937H20.15L21.0979 8.31449ZM44.1188 52.5416C44.0848 53.6627 43.6113 54.7256 42.8007 55.5008C41.99 56.2761 40.907 56.7015 39.7854 56.6853H25.1875C24.07 56.6964 22.9928 56.2685 22.1875 55.4936C21.3822 54.7187 20.9131 53.6587 20.8813 52.5416L20.6646 46.6374H44.3354L44.1188 52.5416ZM26.8125 36.7791C26.8125 35.6542 27.1461 34.5546 27.771 33.6193C28.396 32.684 29.2843 31.955 30.3235 31.5245C31.3628 31.094 32.5063 30.9814 33.6096 31.2009C34.7129 31.4203 35.7263 31.962 36.5217 32.7574C37.3171 33.5528 37.8588 34.5662 38.0782 35.6695C38.2977 36.7728 38.1851 37.9163 37.7546 38.9556C37.3241 39.9948 36.5951 40.8831 35.6598 41.5081C34.7245 42.133 33.6249 42.4666 32.5 42.4666C30.9916 42.4666 29.545 41.8674 28.4784 40.8007C27.4117 39.7341 26.8125 38.2875 26.8125 36.7791ZM45.0396 26.8937H19.9604L19.6896 19.6624H45.2834L45.0396 26.8937ZM46.8271 16.9541H18.1729C17.9758 16.9475 17.7822 16.8996 17.6046 16.8137C17.427 16.7278 17.2694 16.6056 17.1418 16.4551C17.0143 16.3046 16.9196 16.1291 16.864 15.9398C16.8084 15.7506 16.793 15.5517 16.8188 15.3562C16.8188 14.997 16.9614 14.6526 17.2154 14.3986C17.4694 14.1447 17.8138 14.002 18.1729 14.002H46.8271C47.0234 14.011 47.2158 14.0604 47.3922 14.1472C47.5686 14.2339 47.7252 14.356 47.8523 14.506C47.9794 14.6559 48.0742 14.8304 48.1308 15.0187C48.1874 15.2069 48.2046 15.4047 48.1813 15.5999C48.1813 15.9591 48.0386 16.3035 47.7846 16.5575C47.5307 16.8114 47.1863 16.9541 46.8271 16.9541Z" fill="#545454"/>
</svg>
