<svg width="79" height="74" viewBox="0 0 79 74" fill="none" xmlns="http://www.w3.org/2000/svg">
<path d="M67.0858 9.2132C67.7097 9.0866 68.257 8.73853 68.6128 8.24205C68.9686 7.74558 69.1053 7.1393 68.9941 6.55046C68.883 5.96163 68.5326 5.43601 68.0166 5.08394C67.5006 4.73187 66.8591 4.58072 66.2267 4.6622L45.2423 8.13095C44.7619 8.21059 44.3174 8.42178 43.965 8.73788C43.6126 9.05397 43.3681 9.46079 43.2624 9.90695L42.3242 13.8752H17.2812C16.6265 13.8752 15.9986 14.1188 15.5356 14.5525C15.0726 14.9862 14.8125 15.5744 14.8125 16.1877V30.0627C14.8125 32.516 15.8529 34.8687 17.7048 36.6034C19.5567 38.3382 22.0685 39.3127 24.6875 39.3127C24.6868 42.5938 25.9274 45.7689 28.189 48.2743C30.4506 50.7798 33.587 52.4534 37.0411 52.9981C37.0351 53.0611 37.0318 53.1244 37.0312 53.1877V64.7502H27.1562C26.5015 64.7502 25.8736 64.9938 25.4106 65.4275C24.9476 65.8612 24.6875 66.4494 24.6875 67.0627C24.6875 67.676 24.9476 68.2642 25.4106 68.6979C25.8736 69.1316 26.5015 69.3752 27.1562 69.3752H51.8438C52.4985 69.3752 53.1264 69.1316 53.5894 68.6979C54.0524 68.2642 54.3125 67.676 54.3125 67.0627C54.3125 66.4494 54.0524 65.8612 53.5894 65.4275C53.1264 64.9938 52.4985 64.7502 51.8438 64.7502H41.9688V53.1877C41.9682 53.1244 41.9649 53.0611 41.9589 52.9981C45.413 52.4534 48.5494 50.7798 50.811 48.2743C53.0726 45.7689 54.3132 42.5938 54.3125 39.3127C56.9315 39.3127 59.4433 38.3382 61.2952 36.6034C63.1471 34.8687 64.1875 32.516 64.1875 30.0627V16.1877C64.1875 15.5744 63.9274 14.9862 63.4644 14.5525C63.0014 14.1188 62.3735 13.8752 61.7188 13.8752H47.3802L47.7259 12.4137L67.0858 9.2132ZM41.2232 18.5002L40.1271 23.1252H19.75V18.5002H41.2232ZM19.75 27.7502H39.0309L35.8561 41.1257C35.7273 41.7196 35.8525 42.337 36.2047 42.8453C36.557 43.3536 37.1081 43.7121 37.7396 43.8436C38.3711 43.9751 39.0325 43.8692 39.5815 43.5486C40.1305 43.228 40.5232 42.7184 40.6751 42.1293L44.0919 27.7502H59.25V30.0627C59.25 31.2893 58.7298 32.4657 57.8038 33.3331C56.8779 34.2004 55.622 34.6877 54.3125 34.6877H51.8438C51.189 34.6877 50.5611 34.9313 50.0981 35.365C49.6351 35.7987 49.375 36.3869 49.375 37.0002V39.3127C49.375 41.766 48.3346 44.1187 46.4827 45.8534C44.6308 47.5882 42.119 48.5627 39.5 48.5627C36.881 48.5627 34.3692 47.5882 32.5173 45.8534C30.6654 44.1187 29.625 41.766 29.625 39.3127V37.0002C29.625 36.3869 29.3649 35.7987 28.9019 35.365C28.4389 34.9313 27.811 34.6877 27.1562 34.6877H24.6875C23.378 34.6877 22.1221 34.2004 21.1962 33.3331C20.2702 32.4657 19.75 31.2893 19.75 30.0627V27.7502ZM59.25 23.1252H45.1831L46.2792 18.5002H59.25V23.1252Z" fill="#545454"/>
</svg>
